<svg id="email-2" xmlns="http://www.w3.org/2000/svg" width="27.255" height="27.255" viewBox="0 0 27.255 27.255">
  <path id="Path_469" data-name="Path 469" d="M13.627,27.255A13.627,13.627,0,1,1,27.255,13.627,13.643,13.643,0,0,1,13.627,27.255Zm7.067-8.84a.305.305,0,0,0,.3-.3V9.555l-6.933,5.506a.7.7,0,0,1-.877,0L6.256,9.555V18.11a.305.305,0,0,0,.3.3ZM19.632,8.84l-6,4.768-6-4.768Zm2.777.3V18.11a1.716,1.716,0,0,1-1.715,1.715H6.56A1.716,1.716,0,0,1,4.846,18.11V9.145A1.716,1.716,0,0,1,6.56,7.431H20.694A1.716,1.716,0,0,1,22.409,9.145Z" fill="#bd079b" fill-rule="evenodd"/>
</svg>
