<svg id="email-icon" xmlns="http://www.w3.org/2000/svg" width="50.712" height="50.712" viewBox="0 0 50.712 50.712">
  <path id="Path_449" data-name="Path 449" d="M25.356,50.712A25.356,25.356,0,1,1,50.712,25.356,25.385,25.385,0,0,1,25.356,50.712ZM38.505,34.263a.568.568,0,0,0,.567-.567V17.778l-12.9,10.245a1.311,1.311,0,0,1-1.631,0L11.64,17.778V33.7a.568.568,0,0,0,.567.567ZM36.528,16.449,25.356,25.321,14.184,16.449Zm5.167.567V33.7a3.194,3.194,0,0,1-3.19,3.19h-26.3a3.194,3.194,0,0,1-3.19-3.19V17.016a3.194,3.194,0,0,1,3.19-3.19h26.3A3.194,3.194,0,0,1,41.7,17.016Z" fill="#bd079b" fill-rule="evenodd"/>
</svg>
