<svg xmlns="http://www.w3.org/2000/svg" xmlns:xlink="http://www.w3.org/1999/xlink" width="167.438" height="167.425" viewBox="0 0 167.438 167.425">
  <defs>
    <linearGradient id="linear-gradient" x1="0.001" y1="0.5" x2="0.999" y2="0.5" gradientUnits="objectBoundingBox">
      <stop offset="0" stop-color="#7f7f7f" stop-opacity="0.678"/>
      <stop offset="1" stop-color="#7f7f7f"/>
      <stop offset="1" stop-color="#6e5af0"/>
    </linearGradient>
    <linearGradient id="linear-gradient-2" y1="0.5" x2="1" y2="0.5" gradientUnits="objectBoundingBox">
      <stop offset="0" stop-color="#ebebeb"/>
      <stop offset="1" stop-color="#f1f1f1"/>
    </linearGradient>
    <linearGradient id="linear-gradient-3" y1="0.5" x2="1" y2="0.5" gradientUnits="objectBoundingBox">
      <stop offset="0" stop-color="#7f7f7f"/>
      <stop offset="1" stop-color="#7f7f7f"/>
    </linearGradient>
  </defs>
  <g id="gallery-Icon" transform="translate(-1.498 -1.492)">
    <g id="_1" data-name="1" transform="translate(1.498 1.492)">
      <path id="Path_463" data-name="Path 463" d="M156.989,27.661v18.25c0,29.009-17.294,46.3-46.3,46.3H43.9c-20.322,0-34.986-8.527-41.84-23.67l.877-.638,39.21-26.3a17.7,17.7,0,0,1,21.04,1.116l2.71,2.231a17.764,17.764,0,0,0,22.474,0L121.524,16.5A17.764,17.764,0,0,1,144,16.5Z" transform="translate(2.416 75.21)" fill="url(#linear-gradient)"/>
      <path id="Path_464" data-name="Path 464" d="M160.9,48.54v48.8l-12.99-11.157a17.764,17.764,0,0,0-22.474,0L92.285,114.632a17.764,17.764,0,0,1-22.474,0L67.1,112.4a17.7,17.7,0,0,0-21.04-1.116l-39.21,26.3-.877.638a53.579,53.579,0,0,1-4.463-22.634V48.8c0-29.009,17.294-46.3,46.3-46.3h67.048a18.441,18.441,0,0,0-1.777,8.209V34.139a14.871,14.871,0,0,0,16.178,16.178h23.431A18.441,18.441,0,0,0,160.9,48.54Z" transform="translate(-1.498 5.533)" opacity="0.4" fill="url(#linear-gradient-2)"/>
      <path id="Path_465" data-name="Path 465" d="M43.981,25.053A18.928,18.928,0,1,1,25.053,6.125,18.928,18.928,0,0,1,43.981,25.053Z" transform="translate(30.748 30.798)" fill="url(#linear-gradient-3)"/>
      <path id="Path_466" data-name="Path 466" d="M55.164,1.555H31.734A14.871,14.871,0,0,0,15.555,17.734V41.164A14.871,14.871,0,0,0,31.734,57.342H55.164A14.871,14.871,0,0,0,71.342,41.164V17.734A14.871,14.871,0,0,0,55.164,1.555Zm7.491,31.32a5.156,5.156,0,0,1-3.268,1.435H48.151l.08,11.078a5.037,5.037,0,0,1-1.514,3.427,4.7,4.7,0,0,1-3.268,1.355,4.782,4.782,0,0,1-4.782-4.782V34.231l-11.157.08a4.861,4.861,0,0,1-4.782-4.861,4.782,4.782,0,0,1,4.782-4.782l11.157.08V13.589a4.782,4.782,0,1,1,9.563,0l-.08,11.078H59.388a4.782,4.782,0,0,1,4.782,4.782A5.427,5.427,0,0,1,62.656,32.876Z" transform="translate(96.032 -1.492)" fill="url(#linear-gradient)"/>
    </g>
  </g>
</svg>
