<svg xmlns="http://www.w3.org/2000/svg" width="132.597" height="118.199" viewBox="0 0 132.597 118.199">
  <g id="home-icon-2" transform="translate(0.001 -27.797)">
    <path id="Path_3" data-name="Path 3" d="M131.186,74.483,68.333,28.463a3.444,3.444,0,0,0-4.07,0L1.41,74.483a3.445,3.445,0,1,0,4.071,5.56L66.3,35.513l60.818,44.529a3.445,3.445,0,0,0,4.071-5.559Z" transform="translate(0 0)"/>
    <path id="Path_4" data-name="Path 4" d="M156.364,232.543a3.445,3.445,0,0,0-3.445,3.445v54.838H125.358V260.892a17.227,17.227,0,1,0-34.454,0v29.935H63.342V235.988a3.445,3.445,0,0,0-6.89,0v58.284a3.445,3.445,0,0,0,3.445,3.445H94.349a3.443,3.443,0,0,0,3.432-3.177,2.6,2.6,0,0,0,.013-.268v-33.38a10.337,10.337,0,0,1,20.674,0v33.38a2.529,2.529,0,0,0,.013.265,3.443,3.443,0,0,0,3.432,3.18h34.452a3.445,3.445,0,0,0,3.445-3.445V235.988a3.446,3.446,0,0,0-3.445-3.445Z" transform="translate(-41.833 -151.721)"/>
  </g>
</svg>
