<svg xmlns="http://www.w3.org/2000/svg" width="50.87" height="50.87" viewBox="0 0 50.87 50.87">
  <g id="instagram-icon" transform="translate(-2998 6023)">
    <circle id="Ellipse_4" data-name="Ellipse 4" cx="25.435" cy="25.435" r="25.435" transform="translate(2998 -6023)" fill="#fff"/>
    <g id="Group_622" data-name="Group 622" transform="translate(2998 -6023)">
      <path id="Path_442" data-name="Path 442" d="M216.405,211.7a4.7,4.7,0,1,1-4.7-4.7A4.7,4.7,0,0,1,216.405,211.7Zm0,0" transform="translate(-186.268 -186.268)"/>
      <path id="Path_443" data-name="Path 443" d="M158.048,138.734a4.672,4.672,0,0,0-2.678-2.678,7.806,7.806,0,0,0-2.619-.485c-1.488-.068-1.934-.083-5.7-.083s-4.213.014-5.7.082a7.809,7.809,0,0,0-2.619.486,4.674,4.674,0,0,0-2.678,2.678,7.81,7.81,0,0,0-.485,2.62c-.068,1.488-.083,1.934-.083,5.7s.015,4.213.083,5.7a7.807,7.807,0,0,0,.485,2.619,4.671,4.671,0,0,0,2.678,2.678,7.8,7.8,0,0,0,2.62.486c1.488.068,1.933.082,5.7.082s4.214-.014,5.7-.082a7.8,7.8,0,0,0,2.62-.486,4.672,4.672,0,0,0,2.678-2.678,7.814,7.814,0,0,0,.486-2.619c.068-1.488.082-1.934.082-5.7s-.014-4.213-.082-5.7A7.8,7.8,0,0,0,158.048,138.734Zm-11,15.565a7.244,7.244,0,1,1,7.244-7.245,7.245,7.245,0,0,1-7.244,7.245Zm7.531-13.082a1.693,1.693,0,1,1,1.693-1.693,1.693,1.693,0,0,1-1.693,1.693Zm0,0" transform="translate(-121.615 -121.619)"/>
      <path id="Path_444" data-name="Path 444" d="M25.435,0A25.435,25.435,0,1,0,50.87,25.435,25.438,25.438,0,0,0,25.435,0ZM39.952,31.456A10.712,10.712,0,0,1,39.273,35,7.468,7.468,0,0,1,35,39.273a10.723,10.723,0,0,1-3.545.679c-1.557.071-2.055.088-6.021.088s-4.464-.017-6.022-.088a10.724,10.724,0,0,1-3.545-.679A7.468,7.468,0,0,1,11.6,35a10.713,10.713,0,0,1-.679-3.545c-.072-1.558-.089-2.055-.089-6.022s.017-4.464.088-6.021a10.714,10.714,0,0,1,.678-3.545A7.472,7.472,0,0,1,15.868,11.6a10.726,10.726,0,0,1,3.545-.679c1.557-.071,2.055-.088,6.021-.088s4.464.017,6.021.088A10.73,10.73,0,0,1,35,11.6a7.469,7.469,0,0,1,4.271,4.272,10.714,10.714,0,0,1,.679,3.545c.071,1.557.088,2.055.088,6.021s-.017,4.464-.088,6.021Zm0,0"/>
    </g>
  </g>
</svg>
