<svg xmlns="http://www.w3.org/2000/svg" width="50.247" height="50.247" viewBox="0 0 50.247 50.247">
  <g id="linkedin-icon" transform="translate(0 0.001)">
    <circle id="Ellipse_7" data-name="Ellipse 7" cx="25.123" cy="25.123" r="25.123" transform="translate(0 -0.001)" fill="#bd079b"/>
    <path id="Path_447" data-name="Path 447" d="M55.08,40.379V50.737H49.075V41.073c0-2.426-.867-4.083-3.041-4.083a3.285,3.285,0,0,0-3.08,2.2,4.11,4.11,0,0,0-.2,1.464V50.736H36.749s.081-16.367,0-18.061h6.006v2.559c-.012.02-.029.04-.04.059h.04v-.059a5.963,5.963,0,0,1,5.412-2.984C52.118,32.251,55.08,34.832,55.08,40.379ZM30.466,23.969a3.129,3.129,0,1,0-.079,6.242h.039a3.131,3.131,0,1,0,.04-6.242ZM27.425,50.737h6V32.675h-6V50.737Z" transform="translate(-14.946 -13.235)" fill="#f1f2f2"/>
  </g>
</svg>
