<svg xmlns="http://www.w3.org/2000/svg" width="88.604" height="119.928" viewBox="0 0 88.604 119.928">
  <g id="location-icon" transform="translate(-48.08)">
    <path id="Path_1" data-name="Path 1" d="M92.382,0a44.351,44.351,0,0,0-44.3,44.3c0,8.042,3.607,16.691,3.758,17.056a71.444,71.444,0,0,0,5.121,9.577l30.375,46.024a5.778,5.778,0,0,0,10.1,0l30.378-46.027a71.147,71.147,0,0,0,5.121-9.577c.151-.362,3.755-9.012,3.755-17.056A44.351,44.351,0,0,0,92.382,0Zm35.741,59.336a65.462,65.462,0,0,1-4.667,8.73L93.078,114.093c-.6.909-.79.909-1.389,0L61.311,68.066a65.493,65.493,0,0,1-4.667-8.733c-.044-.107-3.351-8.068-3.351-15.031a39.09,39.09,0,1,1,78.18,0c0,6.974-3.315,14.956-3.349,15.034Z" fill="#bd079b"/>
    <path id="Path_2" data-name="Path 2" d="M135.534,64.008a23.454,23.454,0,1,0,23.454,23.454A23.481,23.481,0,0,0,135.534,64.008Zm0,41.7a18.242,18.242,0,1,1,18.242-18.242A18.264,18.264,0,0,1,135.534,105.7Z" transform="translate(-43.152 -43.157)" fill="#bd079b"/>
  </g>
</svg>
