<svg xmlns="http://www.w3.org/2000/svg" width="10.329" height="10.334" viewBox="0 0 10.329 10.334">
  <g id="next-IconTwo" transform="translate(-4.994 -4.996)">
    <g id="_19" data-name="19" transform="translate(4.994 4.996)">
      <path id="Path_461" data-name="Path 461" d="M11.736,15.347a.738.738,0,0,1-.524-1.262l3.911-3.9-3.911-3.9a.738.738,0,0,1,1.041-1.041l4.428,4.428a.738.738,0,0,1,0,1.041l-4.428,4.428A.738.738,0,0,1,11.736,15.347Z" transform="translate(-6.566 -5.013)" fill="#fff"/>
      <path id="Path_462" data-name="Path 462" d="M5.736,15.331a.738.738,0,0,1-.524-1.262l3.911-3.9-3.911-3.9A.741.741,0,0,1,6.26,5.213l4.428,4.428a.738.738,0,0,1,0,1.041L6.26,15.109A.738.738,0,0,1,5.736,15.331Z" transform="translate(-4.994 -4.996)" fill="#fff"/>
    </g>
  </g>
</svg>
