<svg xmlns="http://www.w3.org/2000/svg" width="50.605" height="50.605" viewBox="0 0 50.605 50.605">
  <g id="pinterest-icon" transform="translate(-0.001 -0.002)">
    <circle id="Ellipse_8" data-name="Ellipse 8" cx="25.303" cy="25.303" r="25.303" transform="translate(0.001 0.002)" fill="#bd079b"/>
    <path id="Path_448" data-name="Path 448" d="M43.265,47.384c-1.913-.148-2.717-1.1-4.217-2.007-.825,4.326-1.832,8.473-4.817,10.639-.922-6.538,1.352-11.449,2.409-16.662-1.8-3.031.216-9.132,4.014-7.628,4.674,1.848-4.047,11.27,1.808,12.447,6.112,1.229,8.607-10.605,4.817-14.455-5.477-5.557-15.941-.126-14.654,7.829.313,1.945,2.323,2.535.8,5.219-3.505-.776-4.551-3.541-4.416-7.226.217-6.033,5.421-10.257,10.64-10.841,6.6-.739,12.8,2.424,13.652,8.633.962,7.008-2.98,14.6-10.038,14.052Z" transform="translate(-15.919 -13.499)" fill="#f1f2f2"/>
  </g>
</svg>
