<svg xmlns="http://www.w3.org/2000/svg" width="47.997" height="54.833" viewBox="0 0 47.997 54.833">
  <g id="question-icon" transform="translate(-31.918 0)">
    <path id="Path_455" data-name="Path 455" d="M79.915,24a24,24,0,1,0-30.59,23.08,3.608,3.608,0,0,1,2.144,1.661l3.047,5.285a1.616,1.616,0,0,0,2.8,0l3.047-5.285a3.606,3.606,0,0,1,2.143-1.661A24.008,24.008,0,0,0,79.915,24Z" transform="translate(0 0)" fill="#bd079b"/>
    <path id="Path_457" data-name="Path 457" d="M237.313,312.659h-1.388a1.631,1.631,0,0,1-1.631-1.631v-1.118a1.631,1.631,0,0,1,1.631-1.631h1.388a1.631,1.631,0,0,1,1.631,1.631v1.118A1.631,1.631,0,0,1,237.313,312.659Z" transform="translate(-180.703 -275.264)" fill="#f1f1f4"/>
    <path id="Path_458" data-name="Path 458" d="M249.6,308.28h-1.388c-.053,0-.105,0-.157.008a1.631,1.631,0,0,1,1.474,1.623v1.118a1.631,1.631,0,0,1-1.474,1.623c.052,0,.1.008.157.008H249.6a1.631,1.631,0,0,0,1.631-1.631v-1.118A1.631,1.631,0,0,0,249.6,308.28Z" transform="translate(-192.991 -275.264)" fill="#e2dfe2"/>
    <path id="Path_459" data-name="Path 459" d="M191.386,112.075a2.136,2.136,0,0,1-2.136-2.136v-4.681a2.136,2.136,0,0,1,2.136-2.136,3.478,3.478,0,1,0-3.478-3.478,2.136,2.136,0,1,1-4.272,0,7.75,7.75,0,1,1,10.035,7.406.212.212,0,0,0-.149.2v2.687A2.136,2.136,0,0,1,191.386,112.075Z" transform="translate(-135.47 -82.052)" fill="#f1f1f4"/>
    <g id="Group_625" data-name="Group 625" transform="translate(48.481 10.488)">
      <path id="Path_460" data-name="Path 460" d="M194.013,101.557a3.475,3.475,0,0,1,.865.109,3.476,3.476,0,0,0-6.037,2.352,2.136,2.136,0,0,1-2.136,2.136c-.043,0-.084,0-.126-.006a2.134,2.134,0,0,0,3.957-1.113A3.482,3.482,0,0,1,194.013,101.557Zm3.095-3.625a7.744,7.744,0,0,1-1.806,13.239,1.385,1.385,0,0,0-.847,1.279v1.863a2.136,2.136,0,0,1-2.136,2.136c-.043,0-.084,0-.126-.006a2.133,2.133,0,0,0,1.8,1.023,2.182,2.182,0,0,0,2.159-2.188v-2.635a.212.212,0,0,1,.149-.2,7.749,7.749,0,0,0,.81-14.509Z" transform="translate(-186.578 -97.932)" fill="#e2dfe2"/>
    </g>
  </g>
</svg>
