<svg xmlns="http://www.w3.org/2000/svg" width="118.13" height="118.13" viewBox="0 0 118.13 118.13">
  <g id="search-icon2" transform="translate(-0.006)">
    <path id="Path_8" data-name="Path 8" d="M117.017,111.7l-30.5-30.012A48.24,48.24,0,0,0,99.412,48.91C99.408,21.9,77.157,0,49.707,0S.006,21.9.006,48.91s22.251,48.91,49.7,48.91A49.984,49.984,0,0,0,80.99,86.9l30.618,30.13a3.865,3.865,0,0,0,5.406,0,3.723,3.723,0,0,0,0-5.324ZM49.707,90.295c-23.226,0-42.054-18.529-42.054-41.385S26.481,7.525,49.707,7.525,91.761,26.054,91.761,48.91,72.933,90.295,49.707,90.295Z" fill="#fff"/>
  </g>
</svg>
