<svg id="success-icon" xmlns="http://www.w3.org/2000/svg" width="109.106" height="109.106" viewBox="0 0 109.106 109.106">
  <path id="Path_450" data-name="Path 450" d="M201.648,65.535a4.111,4.111,0,0,0-5.814-.007l-49.331,49.2L128.7,95.4a4.112,4.112,0,1,0-6.05,5.57l20.7,22.478a4.107,4.107,0,0,0,2.937,1.325h.088a4.116,4.116,0,0,0,2.9-1.2l52.36-52.223A4.111,4.111,0,0,0,201.648,65.535Z" transform="translate(-95.662 -50.619)" fill="#bd079b"/>
  <path id="Path_451" data-name="Path 451" d="M104.994,50.441a4.112,4.112,0,0,0-4.112,4.112A46.329,46.329,0,1,1,54.553,8.224a4.112,4.112,0,1,0,0-8.224,54.553,54.553,0,1,0,54.553,54.553A4.112,4.112,0,0,0,104.994,50.441Z" fill="#bd079b"/>
</svg>
