<svg xmlns="http://www.w3.org/2000/svg" width="50.87" height="50.87" viewBox="0 0 50.87 50.87">
  <g id="twitter-icon" transform="translate(0 -0.401)">
    <g id="Layer_2" data-name="Layer 2" transform="translate(0 0.401)">
      <g id="_04.Twitter" data-name="04.Twitter">
        <circle id="Ellipse_2" data-name="Ellipse 2" cx="25.435" cy="25.435" r="25.435"/>
        <path id="Path_441" data-name="Path 441" d="M60.66,39.294a14.307,14.307,0,0,1-4,1.111,6.974,6.974,0,0,0,3.055-3.888,13.765,13.765,0,0,1-4.4,1.7,6.881,6.881,0,0,0-7.622-1.737A7.03,7.03,0,0,0,43.3,43.029a7.36,7.36,0,0,0,.162,1.6,19.582,19.582,0,0,1-14.314-7.354,7.092,7.092,0,0,0,2.136,9.406,6.787,6.787,0,0,1-3.137-.867v.077a7.044,7.044,0,0,0,5.563,6.9,6.843,6.843,0,0,1-1.82.23,6.116,6.116,0,0,1-1.318-.118,7.026,7.026,0,0,0,6.491,4.9,13.852,13.852,0,0,1-8.6,3,12.384,12.384,0,0,1-1.662-.1,19.358,19.358,0,0,0,10.664,3.156c12.78,0,19.766-10.72,19.766-20.011,0-.31,0-.61-.024-.909a13.916,13.916,0,0,0,3.454-3.651Z" transform="translate(-18.09 -24.695)" fill="#fff"/>
      </g>
    </g>
  </g>
</svg>
