<svg xmlns="http://www.w3.org/2000/svg" width="92.733" height="66.224" viewBox="0 0 92.733 66.224">
  <g id="videoCall-icon" transform="translate(-0.529 -1.588)">
    <path id="Path_452" data-name="Path 452" d="M10.479,1.588a10.013,10.013,0,0,0-9.95,9.95V57.886a9.995,9.995,0,0,0,9.95,9.925H60.156a9.975,9.975,0,0,0,9.925-9.925V53.192l18.386,9.262A3.317,3.317,0,0,0,93.262,59.5V9.9a3.317,3.317,0,0,0-4.794-2.954l-18.4,9.262V11.538a10,10,0,0,0-9.913-9.95Zm0,6.634H60.156a3.232,3.232,0,0,1,3.292,3.317V57.886a3.229,3.229,0,0,1-3.292,3.329H10.467A3.254,3.254,0,0,1,7.15,57.886V11.538a3.254,3.254,0,0,1,3.329-3.329Zm76.149,7.059V54.144L70.082,45.783V23.642Z" transform="translate(0 0)" fill="#bd079b"/>
  </g>
</svg>
