<svg xmlns="http://www.w3.org/2000/svg" width="27" height="27" viewBox="0 0 27 27">
  <g id="whatsapp-Icpon" transform="translate(0 0.035)">
    <g id="Layer_2" data-name="Layer 2">
      <g id="_09.whatsapp" data-name="09.whatsapp">
        <circle id="Ellipse_9" data-name="Ellipse 9" cx="13.5" cy="13.5" r="13.5" transform="translate(0 -0.035)" fill="#29a71a"/>
        <g id="Group_626" data-name="Group 626" transform="translate(5.124 5.06)">
          <path id="Path_467" data-name="Path 467" d="M47.75,35.5a8.361,8.361,0,0,0-13.394,9.672l-.887,4.307a.319.319,0,0,0,.051.25.323.323,0,0,0,.343.133l4.221-1A8.359,8.359,0,0,0,47.75,35.5Zm-1.316,10.5a6.548,6.548,0,0,1-7.541,1.226l-.588-.291-2.588.613.008-.032.536-2.6-.288-.568a6.545,6.545,0,0,1,10.461-7.6.349.349,0,0,0,.034.034A6.545,6.545,0,0,1,46.434,46.006Z" transform="translate(-33.447 -33.024)" fill="#fff"/>
          <path id="Path_468" data-name="Path 468" d="M69.123,68.005a2.718,2.718,0,0,1-1.448,1.262c-1.1.267-2.8.009-4.9-1.955l-.026-.023c-1.852-1.717-2.333-3.147-2.217-4.281A2.71,2.71,0,0,1,61.582,61.4a.6.6,0,0,1,.942.216l.682,1.532a.6.6,0,0,1-.075.613l-.345.447a.593.593,0,0,0-.054.662,6.442,6.442,0,0,0,1.169,1.3,6.823,6.823,0,0,0,1.619,1.16.585.585,0,0,0,.642-.135l.4-.4a.613.613,0,0,1,.6-.153l1.619.46a.613.613,0,0,1,.343.905Z" transform="translate(-56.366 -56.933)" fill="#fff"/>
        </g>
      </g>
    </g>
  </g>
</svg>
