<svg xmlns="http://www.w3.org/2000/svg" width="10.334" height="10.215" viewBox="0 0 10.334 10.215">
  <g id="x-Icon" transform="translate(0 -1.844)">
    <path id="Path_464" data-name="Path 464" d="M.98,12.661a.979.979,0,0,1-.7-.235.979.979,0,0,1,0-1.38L8.6,2.735a.979.979,0,0,1,1.429,1.331l-8.36,8.36A.979.979,0,0,1,.98,12.661Z" transform="translate(0 -0.607)" fill="#707070"/>
    <path id="Path_465" data-name="Path 465" d="M10.76,12.055a.979.979,0,0,1-.685-.284L1.764,3.46a.979.979,0,0,1,1.38-1.38L11.5,10.39a.979.979,0,0,1,.046,1.384l-.046.046a.979.979,0,0,1-.744.235Z" transform="translate(-1.478 0)" fill="#707070"/>
  </g>
</svg>
