<svg xmlns="http://www.w3.org/2000/svg" width="50.87" height="50.87" viewBox="0 0 50.87 50.87">
  <g id="youtube-icon" transform="translate(-2896 6064)">
    <circle id="Ellipse_3" data-name="Ellipse 3" cx="25.435" cy="25.435" r="25.435" transform="translate(2896 -6064)" fill="#fff"/>
    <g id="Group_620" data-name="Group 620" transform="translate(2896 -6064)">
      <g id="Layer_2" data-name="Layer 2">
        <g id="_02.YouTube" data-name="02.YouTube">
          <path id="Path_439" data-name="Path 439" d="M65.46,71.644l6.8-3.943-6.8-3.962Z" transform="translate(-43.423 -42.257)"/>
          <path id="Path_440" data-name="Path 440" d="M25.435,0A25.435,25.435,0,1,0,50.87,25.435,25.435,25.435,0,0,0,25.435,0ZM38.822,29.936A5.064,5.064,0,0,1,33.758,35H17.112a5.064,5.064,0,0,1-5.064-5.067v-9a5.064,5.064,0,0,1,5.064-5.067H33.758a5.064,5.064,0,0,1,5.064,5.067Z"/>
        </g>
      </g>
    </g>
  </g>
</svg>
